<svg width="132" height="132" viewBox="0 0 132 132" fill="none" xmlns="http://www.w3.org/2000/svg">
<path d="M65.244 91.8791C79.8127 91.8791 91.623 80.0688 91.623 65.5001C91.623 50.9314 79.8127 39.1211 65.244 39.1211C50.6753 39.1211 38.865 50.9314 38.865 65.5001C38.865 80.0688 50.6753 91.8791 65.244 91.8791Z" fill="#F4F4F4"/>
<path d="M39.824 3.85352C19.441 3.85352 2.84399 20.4505 2.84399 40.8335V91.1635C2.84399 111.547 19.441 128.143 39.824 128.143H90.664C111.047 128.143 127.643 111.548 127.643 91.1635V40.8335C127.643 20.4505 111.048 3.85352 90.664 3.85352H39.824ZM39.824 15.8125H90.664C104.629 15.8125 115.684 26.8695 115.684 40.8335V91.1635C115.684 105.129 104.629 116.184 90.664 116.184H39.824C25.859 116.184 14.803 105.129 14.803 91.1635V40.8335C14.803 26.8685 25.86 15.8125 39.824 15.8125Z" fill="#F4F4F4"/>
<path d="M98.8141 40.5886C102.953 40.5886 106.309 37.2332 106.309 33.0941C106.309 28.955 102.953 25.5996 98.8141 25.5996C94.675 25.5996 91.3196 28.955 91.3196 33.0941C91.3196 37.2332 94.675 40.5886 98.8141 40.5886Z" fill="#F4F4F4"/>
</svg>
